<mxfile host="app.diagrams.net" modified="2023-12-18T13:14:55.532Z" agent="Mozilla/5.0 (Windows NT 10.0; Win64; x64; rv:121.0) Gecko/20100101 Firefox/121.0" etag="tjk0xMRe0db3fumBt4Yy" version="22.1.11" type="device">
  <diagram name="Page-1" id="k8MW4jOEHfcuJ2rXN-dL">
    <mxGraphModel dx="2074" dy="1181" grid="1" gridSize="10" guides="1" tooltips="1" connect="1" arrows="1" fold="1" page="1" pageScale="1" pageWidth="850" pageHeight="1100" math="0" shadow="0">
      <root>
        <mxCell id="0" />
        <mxCell id="1" parent="0" />
        <mxCell id="K9ENcER5YgDuPqYPfJyB-10" style="edgeStyle=orthogonalEdgeStyle;rounded=0;orthogonalLoop=1;jettySize=auto;html=1;exitX=0.5;exitY=1;exitDx=0;exitDy=0;entryX=0.5;entryY=0;entryDx=0;entryDy=0;" edge="1" parent="1" source="K9ENcER5YgDuPqYPfJyB-1" target="K9ENcER5YgDuPqYPfJyB-4">
          <mxGeometry relative="1" as="geometry" />
        </mxCell>
        <mxCell id="K9ENcER5YgDuPqYPfJyB-1" value="Front-end" style="rounded=0;whiteSpace=wrap;html=1;" vertex="1" parent="1">
          <mxGeometry x="320" y="320" width="120" height="60" as="geometry" />
        </mxCell>
        <mxCell id="K9ENcER5YgDuPqYPfJyB-3" value="" style="edgeStyle=orthogonalEdgeStyle;rounded=0;orthogonalLoop=1;jettySize=auto;html=1;" edge="1" parent="1" source="K9ENcER5YgDuPqYPfJyB-2" target="K9ENcER5YgDuPqYPfJyB-1">
          <mxGeometry relative="1" as="geometry" />
        </mxCell>
        <mxCell id="K9ENcER5YgDuPqYPfJyB-2" value="User" style="shape=umlActor;verticalLabelPosition=bottom;verticalAlign=top;html=1;outlineConnect=0;" vertex="1" parent="1">
          <mxGeometry x="365" y="150" width="30" height="60" as="geometry" />
        </mxCell>
        <mxCell id="K9ENcER5YgDuPqYPfJyB-11" style="edgeStyle=orthogonalEdgeStyle;rounded=0;orthogonalLoop=1;jettySize=auto;html=1;exitX=0.5;exitY=1;exitDx=0;exitDy=0;" edge="1" parent="1" source="K9ENcER5YgDuPqYPfJyB-4" target="K9ENcER5YgDuPqYPfJyB-5">
          <mxGeometry relative="1" as="geometry" />
        </mxCell>
        <mxCell id="K9ENcER5YgDuPqYPfJyB-4" value="Infra" style="rounded=0;whiteSpace=wrap;html=1;" vertex="1" parent="1">
          <mxGeometry x="320" y="440" width="120" height="60" as="geometry" />
        </mxCell>
        <mxCell id="K9ENcER5YgDuPqYPfJyB-12" style="edgeStyle=orthogonalEdgeStyle;rounded=0;orthogonalLoop=1;jettySize=auto;html=1;exitX=0.25;exitY=1;exitDx=0;exitDy=0;" edge="1" parent="1" source="K9ENcER5YgDuPqYPfJyB-5" target="K9ENcER5YgDuPqYPfJyB-6">
          <mxGeometry relative="1" as="geometry" />
        </mxCell>
        <mxCell id="K9ENcER5YgDuPqYPfJyB-13" style="edgeStyle=orthogonalEdgeStyle;rounded=0;orthogonalLoop=1;jettySize=auto;html=1;exitX=0.5;exitY=1;exitDx=0;exitDy=0;entryX=0.5;entryY=0;entryDx=0;entryDy=0;" edge="1" parent="1" source="K9ENcER5YgDuPqYPfJyB-5" target="K9ENcER5YgDuPqYPfJyB-7">
          <mxGeometry relative="1" as="geometry" />
        </mxCell>
        <mxCell id="K9ENcER5YgDuPqYPfJyB-14" style="edgeStyle=orthogonalEdgeStyle;rounded=0;orthogonalLoop=1;jettySize=auto;html=1;exitX=0.75;exitY=1;exitDx=0;exitDy=0;entryX=0.5;entryY=0;entryDx=0;entryDy=0;" edge="1" parent="1" source="K9ENcER5YgDuPqYPfJyB-5" target="K9ENcER5YgDuPqYPfJyB-8">
          <mxGeometry relative="1" as="geometry" />
        </mxCell>
        <mxCell id="K9ENcER5YgDuPqYPfJyB-5" value="API Service" style="rounded=0;whiteSpace=wrap;html=1;" vertex="1" parent="1">
          <mxGeometry x="320" y="560" width="120" height="60" as="geometry" />
        </mxCell>
        <mxCell id="K9ENcER5YgDuPqYPfJyB-6" value="Tax&#39;s Form Handler" style="rounded=0;whiteSpace=wrap;html=1;" vertex="1" parent="1">
          <mxGeometry x="160" y="680" width="120" height="60" as="geometry" />
        </mxCell>
        <mxCell id="K9ENcER5YgDuPqYPfJyB-7" value="Payment" style="rounded=0;whiteSpace=wrap;html=1;" vertex="1" parent="1">
          <mxGeometry x="320" y="680" width="120" height="60" as="geometry" />
        </mxCell>
        <mxCell id="K9ENcER5YgDuPqYPfJyB-8" value="Form Detection &amp;amp; Suggestion" style="rounded=0;whiteSpace=wrap;html=1;" vertex="1" parent="1">
          <mxGeometry x="480" y="680" width="120" height="60" as="geometry" />
        </mxCell>
      </root>
    </mxGraphModel>
  </diagram>
</mxfile>
